<svg width="1200" height="800" viewBox="0 0 1200 800" xmlns="http://www.w3.org/2000/svg">
  <defs>
    <!-- Modern gradient backgrounds -->
    <linearGradient id="bg-gradient" x1="0%" y1="0%" x2="100%" y2="100%">
      <stop offset="0%" stop-color="#1e40af" stop-opacity="0.08"/>
      <stop offset="25%" stop-color="#3b82f6" stop-opacity="0.06"/>
      <stop offset="50%" stop-color="#8b5cf6" stop-opacity="0.05"/>
      <stop offset="75%" stop-color="#06b6d4" stop-opacity="0.04"/>
      <stop offset="100%" stop-color="#10b981" stop-opacity="0.03"/>
    </linearGradient>
    
    <!-- Accent gradients -->
    <radialGradient id="accent-1" cx="30%" cy="20%" r="70%">
      <stop offset="0%" stop-color="#3b82f6" stop-opacity="0.15"/>
      <stop offset="100%" stop-color="#3b82f6" stop-opacity="0"/>
    </radialGradient>
    
    <radialGradient id="accent-2" cx="70%" cy="80%" r="60%">
      <stop offset="0%" stop-color="#8b5cf6" stop-opacity="0.12"/>
      <stop offset="100%" stop-color="#8b5cf6" stop-opacity="0"/>
    </radialGradient>
    
    <radialGradient id="accent-3" cx="20%" cy="70%" r="50%">
      <stop offset="0%" stop-color="#06b6d4" stop-opacity="0.1"/>
      <stop offset="100%" stop-color="#06b6d4" stop-opacity="0"/>
    </radialGradient>
    
    <!-- Geometric patterns -->
    <pattern id="geometric-pattern" x="0" y="0" width="200" height="200" patternUnits="userSpaceOnUse">
      <!-- Modern geometric shapes -->
      <circle cx="50" cy="50" r="8" fill="rgba(59, 130, 246, 0.06)"/>
      <circle cx="150" cy="50" r="6" fill="rgba(139, 92, 246, 0.05)"/>
      <circle cx="50" cy="150" r="10" fill="rgba(6, 182, 212, 0.04)"/>
      <circle cx="150" cy="150" r="7" fill="rgba(16, 185, 129, 0.05)"/>
      
      <!-- Subtle lines -->
      <line x1="0" y1="100" x2="200" y2="100" stroke="rgba(59, 130, 246, 0.03)" stroke-width="1"/>
      <line x1="100" y1="0" x2="100" y2="200" stroke="rgba(139, 92, 246, 0.03)" stroke-width="1"/>
    </pattern>
    
    <!-- Floating elements pattern -->
    <pattern id="floating-elements" x="0" y="0" width="300" height="300" patternUnits="userSpaceOnUse">
      <!-- Abstract shapes -->
      <path d="M50 50 Q75 25 100 50 T150 50" stroke="rgba(59, 130, 246, 0.08)" stroke-width="2" fill="none"/>
      <path d="M200 100 Q225 75 250 100 T300 100" stroke="rgba(139, 92, 246, 0.06)" stroke-width="2" fill="none"/>
      <path d="M100 200 Q125 175 150 200 T200 200" stroke="rgba(6, 182, 212, 0.07)" stroke-width="2" fill="none"/>
    </pattern>
  </defs>
  
  <!-- Main background -->
  <rect width="100%" height="100%" fill="url(#bg-gradient)"/>
  
  <!-- Geometric pattern overlay -->
  <rect width="100%" height="100%" fill="url(#geometric-pattern)"/>
  
  <!-- Floating elements -->
  <rect width="100%" height="100%" fill="url(#floating-elements)"/>
  
  <!-- Accent circles -->
  <circle cx="200" cy="150" r="120" fill="url(#accent-1)"/>
  <circle cx="800" cy="300" r="100" fill="url(#accent-2)"/>
  <circle cx="400" cy="600" r="140" fill="url(#accent-3)"/>
  <circle cx="1000" cy="650" r="110" fill="url(#accent-1)"/>
  
  <!-- Modern geometric shapes -->
  <g opacity="0.1">
    <!-- Hexagon -->
    <path d="M300 200 L350 150 L450 150 L500 200 L450 250 L350 250 Z" 
          fill="rgba(59, 130, 246, 0.08)" stroke="rgba(59, 130, 246, 0.15)" stroke-width="1"/>
    
    <!-- Diamond -->
    <path d="M700 180 L750 130 L800 180 L750 230 Z" 
          fill="rgba(139, 92, 246, 0.08)" stroke="rgba(139, 92, 246, 0.15)" stroke-width="1"/>
    
    <!-- Triangle -->
    <path d="M200 500 L250 450 L300 500 Z" 
          fill="rgba(6, 182, 212, 0.08)" stroke="rgba(6, 182, 212, 0.15)" stroke-width="1"/>
    
    <!-- Rounded rectangle -->
    <rect x="600" y="400" width="80" height="60" rx="15" 
          fill="rgba(16, 185, 129, 0.08)" stroke="rgba(16, 185, 129, 0.15)" stroke-width="1"/>
  </g>
  
  <!-- Subtle grid system -->
  <g opacity="0.04">
    <line x1="0" y1="200" x2="1200" y2="200" stroke="rgba(59, 130, 246, 0.4)" stroke-width="1"/>
    <line x1="0" y1="400" x2="1200" y2="400" stroke="rgba(139, 92, 246, 0.4)" stroke-width="1"/>
    <line x1="0" y1="600" x2="1200" y2="600" stroke="rgba(6, 182, 212, 0.4)" stroke-width="1"/>
    <line x1="200" y1="0" x2="200" y2="800" stroke="rgba(59, 130, 246, 0.3)" stroke-width="1"/>
    <line x1="400" y1="0" x2="400" y2="800" stroke="rgba(139, 92, 246, 0.3)" stroke-width="1"/>
    <line x1="600" y1="0" x2="600" y2="800" stroke="rgba(6, 182, 212, 0.3)" stroke-width="1"/>
    <line x1="800" y1="0" x2="800" y2="800" stroke="rgba(16, 185, 129, 0.3)" stroke-width="1"/>
    <line x1="1000" y1="0" x2="1000" y2="800" stroke="rgba(59, 130, 246, 0.3)" stroke-width="1"/>
  </g>
  
  <!-- Modern dots pattern -->
  <g opacity="0.06">
    <circle cx="150" cy="100" r="3" fill="rgba(59, 130, 246, 0.8)"/>
    <circle cx="350" cy="120" r="2" fill="rgba(139, 92, 246, 0.8)"/>
    <circle cx="550" cy="90" r="4" fill="rgba(6, 182, 212, 0.8)"/>
    <circle cx="750" cy="110" r="3" fill="rgba(16, 185, 129, 0.8)"/>
    <circle cx="950" cy="130" r="2" fill="rgba(59, 130, 246, 0.8)"/>
    
    <circle cx="200" cy="300" r="3" fill="rgba(139, 92, 246, 0.8)"/>
    <circle cx="400" cy="320" r="2" fill="rgba(6, 182, 212, 0.8)"/>
    <circle cx="600" cy="290" r="4" fill="rgba(16, 185, 129, 0.8)"/>
    <circle cx="800" cy="310" r="3" fill="rgba(59, 130, 246, 0.8)"/>
    <circle cx="1000" cy="330" r="2" fill="rgba(139, 92, 246, 0.8)"/>
    
    <circle cx="150" cy="500" r="3" fill="rgba(6, 182, 212, 0.8)"/>
    <circle cx="350" cy="520" r="2" fill="rgba(16, 185, 129, 0.8)"/>
    <circle cx="550" cy="490" r="4" fill="rgba(59, 130, 246, 0.8)"/>
    <circle cx="750" cy="510" r="3" fill="rgba(139, 92, 246, 0.8)"/>
    <circle cx="950" cy="530" r="2" fill="rgba(6, 182, 212, 0.8)"/>
    
    <circle cx="200" cy="700" r="3" fill="rgba(16, 185, 129, 0.8)"/>
    <circle cx="400" cy="720" r="2" fill="rgba(59, 130, 246, 0.8)"/>
    <circle cx="600" cy="690" r="4" fill="rgba(139, 92, 246, 0.8)"/>
    <circle cx="800" cy="710" r="3" fill="rgba(6, 182, 212, 0.8)"/>
    <circle cx="1000" cy="730" r="2" fill="rgba(16, 185, 129, 0.8)"/>
  </g>
</svg>
