<svg width="1200" height="800" viewBox="0 0 1200 800" xmlns="http://www.w3.org/2000/svg">
  <defs>
    <pattern id="hospital-pattern" x="0" y="0" width="100" height="100" patternUnits="userSpaceOnUse">
      <!-- Medical cross pattern -->
      <rect x="45" y="20" width="10" height="60" fill="rgba(59, 130, 246, 0.1)"/>
      <rect x="20" y="45" width="60" height="10" fill="rgba(59, 130, 246, 0.1)"/>
      
      <!-- Heartbeat pattern -->
      <path d="M15 60 Q25 40 35 60 T55 60 T75 60 T95 60" stroke="rgba(239, 68, 68, 0.08)" stroke-width="2" fill="none"/>
      
      <!-- Stethoscope pattern -->
      <circle cx="80" cy="30" r="8" fill="rgba(34, 197, 94, 0.08)"/>
      <path d="M80 38 Q80 50 70 60" stroke="rgba(34, 197, 94, 0.08)" stroke-width="2" fill="none"/>
    </pattern>
    
    <!-- Gradient overlay -->
    <linearGradient id="hospital-gradient" x1="0%" y1="0%" x2="100%" y2="100%">
      <stop offset="0%" style="stop-color:rgba(59, 130, 246, 0.05);stop-opacity:1" />
      <stop offset="50%" style="stop-color:rgba(239, 68, 68, 0.03);stop-opacity:1" />
      <stop offset="100%" style="stop-color:rgba(34, 197, 94, 0.05);stop-opacity:1" />
    </linearGradient>
  </defs>
  
  <!-- Background -->
  <rect width="1200" height="800" fill="url(#hospital-gradient)"/>
  
  <!-- Pattern overlay -->
  <rect width="1200" height="800" fill="url(#hospital-pattern)"/>
  
  <!-- Floating medical icons -->
  <g opacity="0.1">
    <!-- Pill bottle -->
    <rect x="100" y="100" width="20" height="30" rx="10" fill="rgba(59, 130, 246, 0.3)"/>
    <rect x="105" y="110" width="10" height="10" fill="rgba(255, 255, 255, 0.5)"/>
    
    <!-- Syringe -->
    <rect x="200" y="150" width="4" height="25" fill="rgba(239, 68, 68, 0.3)"/>
    <circle cx="202" cy="175" r="8" fill="rgba(239, 68, 68, 0.3)"/>
    
    <!-- Medical chart -->
    <rect x="300" y="120" width="25" height="35" fill="rgba(34, 197, 94, 0.3)"/>
    <line x1="305" y1="130" x2="320" y2="130" stroke="rgba(255, 255, 255, 0.5)" stroke-width="1"/>
    <line x1="305" y1="140" x2="315" y2="140" stroke="rgba(255, 255, 255, 0.5)" stroke-width="1"/>
    <line x1="305" y1="150" x2="318" y2="150" stroke="rgba(255, 255, 255, 0.5)" stroke-width="1"/>
    
    <!-- Heart -->
    <path d="M400 140 Q400 120 420 120 T440 140 Q440 160 420 180 Q400 160 400 140" fill="rgba(239, 68, 68, 0.3)"/>
    
    <!-- DNA helix -->
    <path d="M500 100 Q520 120 500 140 T500 180" stroke="rgba(59, 130, 246, 0.3)" stroke-width="2" fill="none"/>
    <path d="M500 100 Q480 120 500 140 T500 180" stroke="rgba(239, 68, 68, 0.3)" stroke-width="2" fill="none"/>
    
    <!-- Microscope -->
    <circle cx="600" cy="160" r="15" fill="rgba(34, 197, 94, 0.3)"/>
    <rect x="590" y="175" width="20" height="25" fill="rgba(34, 197, 94, 0.3)"/>
    
    <!-- X-ray -->
    <rect x="700" y="130" width="30" height="40" fill="rgba(59, 130, 246, 0.3)"/>
    <circle cx="715" cy="150" r="3" fill="rgba(255, 255, 255, 0.5)"/>
    <circle cx="720" cy="160" r="2" fill="rgba(255, 255, 255, 0.5)"/>
    <circle cx="710" cy="170" r="4" fill="rgba(255, 255, 255, 0.5)"/>
  </g>
</svg>
